<svg width="24" height="24" viewBox="0 0 24 24" fill="none" xmlns="http://www.w3.org/2000/svg">
<path d="M11.1998 13.6V12H12.7998V13.6H11.1998ZM7.99981 13.6V12H9.59981V13.6H7.99981ZM14.3998 13.6V12H15.9998V13.6H14.3998ZM11.1998 16.8V15.2H12.7998V16.8H11.1998ZM7.99981 16.8V15.2H9.59981V16.8H7.99981ZM14.3998 16.8V15.2H15.9998V16.8H14.3998ZM4.7998 20V5.6H7.19981V4H8.79981V5.6H15.1998V4H16.7998V5.6H19.1998V20H4.7998ZM6.39981 18.4H17.5998V10.4H6.39981V18.4ZM6.39981 8.8H17.5998V7.2H6.39981V8.8Z" fill="#2F2F2F"/>
</svg>
