<svg width="25" height="24" viewBox="0 0 25 24" fill="none" xmlns="http://www.w3.org/2000/svg">
<path fill-rule="evenodd" clip-rule="evenodd" d="M23 22H19V15.001C19 13.081 18.153 12.0098 16.634 12.0098C14.981 12.0098 14 13.126 14 15.001V22H10V9H14V10.4619C14 10.4619 15.255 8.25977 18.083 8.25977C20.912 8.25977 23 9.98611 23 13.5581V22ZM5.442 6.9209C4.093 6.9209 3 5.81896 3 4.45996C3 3.10196 4.093 2 5.442 2C6.79 2 7.883 3.10196 7.883 4.45996C7.884 5.81896 6.79 6.9209 5.442 6.9209ZM3 22H8V9H3V22Z" fill="#2F2F2F"/>
</svg>
