<svg width="25" height="24" viewBox="0 0 25 24" fill="none" xmlns="http://www.w3.org/2000/svg">
<path d="M9.94232 19.0859V11.9165L16.4763 15.5016L9.94232 19.0859ZM24.4757 9.65967C24.1806 8.61365 23.3471 7.80481 22.2877 7.51859L22.2652 7.51376C19.6037 7.18733 16.5255 7.0008 13.4015 7.0008C13.0839 7.0008 12.7671 7.00241 12.4512 7.00643L12.4996 7.00563C12.2312 7.00241 11.9153 7 11.5977 7C8.47364 7 5.39376 7.18653 2.37055 7.54753L2.7323 7.51215C1.65122 7.80401 0.817691 8.61204 0.528457 9.63715L0.523456 9.65806C0.190044 11.3537 0 13.3051 0 15.299C0 15.3698 3.89112e-08 15.4405 0.000833567 15.5105V15.4992C0.000833567 15.5587 0 15.6294 0 15.7002C0 17.6941 0.190878 19.6447 0.55513 21.5365L0.523456 21.3403C0.818524 22.3864 1.65205 23.1952 2.71147 23.4814L2.73397 23.4862C5.39543 23.8127 8.47364 23.9992 11.5977 23.9992C11.9144 23.9992 12.2312 23.9976 12.5479 23.9936L12.4996 23.9944C12.768 23.9976 13.0847 24 13.4015 24C16.5264 24 19.6054 23.8135 22.6286 23.4525L22.2669 23.4878C23.3488 23.1968 24.1823 22.388 24.4724 21.3628L24.4774 21.3419C24.81 19.6463 25 17.6949 25 15.7018C25 15.6311 25 15.5603 24.9992 15.4904V15.5008C24.9992 15.4413 25 15.3706 25 15.2998C25 13.3059 24.8091 11.3553 24.4449 9.46349L24.4757 9.65967Z" fill="#2F2F2F"/>
</svg>
