<svg width="39" height="39" viewBox="0 0 39 39" fill="none" xmlns="http://www.w3.org/2000/svg">
<path d="M29.8354 38.8706C24.8471 38.8706 20.706 34.9647 20.706 29.6941C20.706 24.5647 24.753 20.5647 30.0236 20.5647C34.4472 20.5647 38.0707 23.247 38.9178 27.0118H35.3884C34.5884 24.8471 32.5178 23.5765 30.0707 23.5765C26.6824 23.5765 23.906 26.1647 23.906 29.6941C23.906 33.2235 26.5883 35.8588 29.9295 35.8588C32.6119 35.8588 34.9178 34.2588 35.3884 32H30.5413V29.2706H38.9178V38.4941H36.0942V34.5412C35.4825 38.1647 32.0942 38.8706 29.8354 38.8706ZM8.28239 38.8706C5.22355 38.8706 2.8706 36.6588 2.8706 33.8353C2.8706 31.6706 4.18825 30.3059 6.49414 28.847C5.31768 27.4823 4.65885 26.2117 4.65885 24.847C4.65885 22.4 6.77651 20.5647 9.45885 20.5647C12.0942 20.5647 14.2118 22.4941 14.2589 24.847H11.2942C11.2471 23.9529 10.4471 23.2 9.45885 23.2C8.42355 23.2 7.62356 23.8588 7.62356 24.847C7.62356 25.6 7.95297 26.3059 9.22356 27.7647L12.9883 32.047L15.0589 29.2706H18.5412L14.7295 34.0235L16.2824 35.7647H18.4001V38.4944L15.0589 38.4941L13.0354 36.2353C12.0942 37.9765 10.1647 38.8706 8.28239 38.8706ZM8.28239 36.2353C9.55298 36.2353 10.6353 35.5765 11.3412 34.4L8.28239 30.8706C6.5412 32 5.97649 32.8 5.97649 33.8353C5.97649 35.1529 7.0118 36.2353 8.28239 36.2353ZM0 17.6V0H4.47061L9.69416 13.4118L14.8707 0H19.3413V17.6H16.2354V4.32941L11.106 17.6H8.28241L3.10591 4.32941V17.6H0Z" fill="white"/>
</svg>
