<svg width="46" height="46" viewBox="0 0 46 46" fill="none" xmlns="http://www.w3.org/2000/svg">
<path d="M34.8079 45.3489C28.9883 45.3489 24.1569 40.7921 24.1569 34.6431C24.1569 28.6588 28.8785 23.9921 35.0275 23.9921C40.1883 23.9921 44.4157 27.1215 45.404 31.5137H41.2863C40.353 28.9882 37.9373 27.5058 35.0824 27.5058C31.1295 27.5058 27.8902 30.5254 27.8902 34.6431C27.8902 38.7607 31.0197 41.8352 34.9177 41.8352C38.0471 41.8352 40.7373 39.9686 41.2863 37.3333H35.6314V34.149H45.404V44.9097H42.1099V40.298C41.3961 44.5254 37.4432 45.3489 34.8079 45.3489ZM9.66277 45.3489C6.09413 45.3489 3.34903 42.7685 3.34903 39.4744C3.34903 36.9489 4.88628 35.3568 7.57649 33.6548C6.20395 32.0626 5.43531 30.5803 5.43531 28.9882C5.43531 26.1333 7.90591 23.9921 11.0353 23.9921C14.1098 23.9921 16.5804 26.2431 16.6353 28.9882H13.1765C13.1216 27.945 12.1882 27.0666 11.0353 27.0666C9.82746 27.0666 8.89413 27.8352 8.89413 28.9882C8.89413 29.8666 9.27845 30.6901 10.7608 32.3921L15.153 37.3881L17.5687 34.1489H21.6314L17.1843 39.694L18.9961 41.7254H21.4667V44.91L17.5687 44.9097L15.2079 42.2744C14.1099 44.3058 11.8588 45.3489 9.66277 45.3489ZM9.66277 42.2744C11.1451 42.2744 12.4079 41.5058 13.2314 40.1333L9.66277 36.0156C7.63138 37.3333 6.97256 38.2666 6.97256 39.4744C6.97256 41.0117 8.18041 42.2744 9.66277 42.2744ZM0 20.5333V0H5.2157L11.3098 15.647L17.3491 0H22.5648V20.5333H18.9412V5.05097L12.9569 20.5333H9.66279L3.62356 5.05097V20.5333H0Z" fill="white"/>
</svg>
